<svg width="182" height="96" viewBox="0 0 182 96" fill="none" xmlns="http://www.w3.org/2000/svg">
<path d="M3.52 0.999998L16.36 25.04H16.52L29.48 0.999998H32.24V29H28.6V6.32H28.44L15.8 29.48H15.08L2.72 6.16H2.56V29H0.8V0.999998H3.52ZM41.5347 9H44.9347V29H41.5347V9ZM41.0547 2.68C41.0547 2.09333 41.268 1.58667 41.6947 1.16C42.1214 0.733332 42.628 0.52 43.2147 0.52C43.8014 0.52 44.308 0.733332 44.7347 1.16C45.1614 1.58667 45.3747 2.09333 45.3747 2.68C45.3747 3.26666 45.1614 3.77333 44.7347 4.2C44.308 4.62667 43.8014 4.84 43.2147 4.84C42.628 4.84 42.1214 4.62667 41.6947 4.2C41.268 3.77333 41.0547 3.26666 41.0547 2.68ZM65.3194 13.56H63.0394C63.0394 13.2133 62.946 12.84 62.7594 12.44C62.5727 12.04 62.2794 11.68 61.8794 11.36C61.4794 11.0133 60.986 10.7333 60.3994 10.52C59.8127 10.28 59.1194 10.16 58.3194 10.16C57.5194 10.16 56.8527 10.28 56.3194 10.52C55.786 10.7333 55.3594 11.0133 55.0394 11.36C54.7194 11.68 54.4927 12.04 54.3594 12.44C54.226 12.8133 54.1594 13.1733 54.1594 13.52C54.1594 14.3467 54.4527 14.9867 55.0394 15.44C55.6527 15.8933 56.4127 16.28 57.3194 16.6C58.226 16.92 59.1994 17.2267 60.2394 17.52C61.306 17.8133 62.2927 18.2 63.1994 18.68C64.106 19.1333 64.8527 19.7467 65.4394 20.52C66.0527 21.2933 66.3594 22.32 66.3594 23.6C66.3594 25.36 65.7327 26.7867 64.4794 27.88C63.2527 28.9467 61.4127 29.48 58.9594 29.48C57.5994 29.48 56.3994 29.32 55.3594 29C54.346 28.6533 53.4794 28.2 52.7594 27.64C52.066 27.08 51.546 26.4533 51.1994 25.76C50.8527 25.04 50.6794 24.3067 50.6794 23.56H53.2794C53.2794 23.88 53.3727 24.28 53.5594 24.76C53.7727 25.24 54.106 25.72 54.5594 26.2C55.0394 26.6533 55.6394 27.0533 56.3594 27.4C57.106 27.72 58.0127 27.88 59.0794 27.88C59.9327 27.88 60.6394 27.7733 61.1994 27.56C61.7594 27.32 62.1994 27.04 62.5194 26.72C62.8394 26.3733 63.0527 26 63.1594 25.6C63.2927 25.2 63.3594 24.8133 63.3594 24.44C63.3594 23.56 63.066 22.8667 62.4794 22.36C61.8927 21.8533 61.1594 21.44 60.2794 21.12C59.3994 20.7733 58.4394 20.4667 57.3994 20.2C56.386 19.9067 55.4394 19.5333 54.5594 19.08C53.6794 18.6267 52.946 18.0267 52.3594 17.28C51.7727 16.5333 51.4794 15.52 51.4794 14.24C51.4794 13.3067 51.6527 12.4933 51.9994 11.8C52.346 11.08 52.8127 10.48 53.3994 10C54.0127 9.52 54.7194 9.16 55.5194 8.92C56.346 8.68 57.226 8.56 58.1594 8.56C59.146 8.56 60.066 8.69333 60.9194 8.96C61.7994 9.2 62.5594 9.54667 63.1994 10C63.866 10.4267 64.386 10.9467 64.7594 11.56C65.1327 12.1733 65.3194 12.84 65.3194 13.56ZM84.5381 13.56H82.2581C82.2581 13.2133 82.1648 12.84 81.9781 12.44C81.7915 12.04 81.4981 11.68 81.0981 11.36C80.6981 11.0133 80.2048 10.7333 79.6181 10.52C79.0315 10.28 78.3381 10.16 77.5381 10.16C76.7381 10.16 76.0715 10.28 75.5381 10.52C75.0048 10.7333 74.5781 11.0133 74.2581 11.36C73.9381 11.68 73.7115 12.04 73.5781 12.44C73.4448 12.8133 73.3781 13.1733 73.3781 13.52C73.3781 14.3467 73.6715 14.9867 74.2581 15.44C74.8715 15.8933 75.6315 16.28 76.5381 16.6C77.4448 16.92 78.4181 17.2267 79.4581 17.52C80.5248 17.8133 81.5115 18.2 82.4181 18.68C83.3248 19.1333 84.0715 19.7467 84.6581 20.52C85.2715 21.2933 85.5781 22.32 85.5781 23.6C85.5781 25.36 84.9515 26.7867 83.6981 27.88C82.4715 28.9467 80.6315 29.48 78.1781 29.48C76.8181 29.48 75.6181 29.32 74.5781 29C73.5648 28.6533 72.6981 28.2 71.9781 27.64C71.2848 27.08 70.7648 26.4533 70.4181 25.76C70.0715 25.04 69.8981 24.3067 69.8981 23.56H72.4981C72.4981 23.88 72.5915 24.28 72.7781 24.76C72.9915 25.24 73.3248 25.72 73.7781 26.2C74.2581 26.6533 74.8581 27.0533 75.5781 27.4C76.3248 27.72 77.2315 27.88 78.2981 27.88C79.1515 27.88 79.8581 27.7733 80.4181 27.56C80.9781 27.32 81.4181 27.04 81.7381 26.72C82.0581 26.3733 82.2715 26 82.3781 25.6C82.5115 25.2 82.5781 24.8133 82.5781 24.44C82.5781 23.56 82.2848 22.8667 81.6981 22.36C81.1115 21.8533 80.3781 21.44 79.4981 21.12C78.6181 20.7733 77.6581 20.4667 76.6181 20.2C75.6048 19.9067 74.6581 19.5333 73.7781 19.08C72.8981 18.6267 72.1648 18.0267 71.5781 17.28C70.9915 16.5333 70.6981 15.52 70.6981 14.24C70.6981 13.3067 70.8715 12.4933 71.2181 11.8C71.5648 11.08 72.0315 10.48 72.6181 10C73.2315 9.52 73.9381 9.16 74.7381 8.92C75.5648 8.68 76.4448 8.56 77.3781 8.56C78.3648 8.56 79.2848 8.69333 80.1381 8.96C81.0181 9.2 81.7781 9.54667 82.4181 10C83.0848 10.4267 83.6048 10.9467 83.9781 11.56C84.3515 12.1733 84.5381 12.84 84.5381 13.56ZM90.9969 9H94.3969V22.2C94.3969 22.4667 94.4235 22.8933 94.4769 23.48C94.5302 24.04 94.7035 24.6133 94.9969 25.2C95.3169 25.7867 95.7835 26.3067 96.3969 26.76C97.0369 27.1867 97.9169 27.4 99.0369 27.4C99.7302 27.4 100.397 27.28 101.037 27.04C101.677 26.8 102.237 26.44 102.717 25.96C103.197 25.4533 103.584 24.8267 103.877 24.08C104.17 23.3333 104.317 22.44 104.317 21.4V9H107.717V29H104.317V26.48H104.157L103.517 27.12C102.584 28.0533 101.65 28.68 100.717 29C99.8102 29.3467 98.9702 29.5067 98.1969 29.48C96.4369 29.48 95.0635 29.1867 94.0769 28.6C93.1169 27.9867 92.4102 27.28 91.9569 26.48C91.5035 25.6533 91.2235 24.8267 91.1169 24C91.0369 23.1467 90.9969 22.48 90.9969 22V9ZM114.239 9H117.639V12.2H117.879C118.359 11 118.972 10.0933 119.719 9.48C120.466 8.86667 121.399 8.56 122.519 8.56C122.652 8.56 122.852 8.58667 123.119 8.64C123.412 8.66667 123.719 8.74667 124.039 8.88C124.386 8.98667 124.719 9.14667 125.039 9.36C125.386 9.57333 125.679 9.84 125.919 10.16L124.559 12.64C124.319 12.2933 123.932 11.92 123.399 11.52C122.892 11.12 122.332 10.92 121.719 10.92C121.266 10.92 120.799 11.0267 120.319 11.24C119.839 11.4533 119.399 11.8 118.999 12.28C118.599 12.76 118.266 13.3867 117.999 14.16C117.759 14.9067 117.639 15.8267 117.639 16.92V29H114.239V9ZM136.872 8.56C138.819 8.56 140.326 8.84 141.393 9.4C142.459 9.93333 143.233 10.64 143.713 11.52C144.219 12.4 144.513 13.4133 144.593 14.56C144.673 15.7067 144.713 16.88 144.713 18.08V29H141.473V27.04C140.699 27.7867 139.713 28.3867 138.513 28.84C137.313 29.2667 136.113 29.48 134.913 29.48C133.766 29.48 132.753 29.28 131.873 28.88C130.993 28.48 130.259 27.96 129.673 27.32C129.086 26.68 128.646 25.96 128.353 25.16C128.059 24.36 127.913 23.5467 127.913 22.72C127.913 21.8667 128.073 21.0133 128.393 20.16C128.713 19.3067 129.193 18.5467 129.833 17.88C130.473 17.1867 131.259 16.6267 132.192 16.2C133.126 15.7733 134.193 15.56 135.393 15.56C136.593 15.56 137.726 15.8 138.793 16.28C139.886 16.7333 140.779 17.3867 141.473 18.24V16.52C141.473 14.3333 141.139 12.7067 140.473 11.64C139.833 10.5733 138.646 10.04 136.913 10.04C136.166 10.04 135.513 10.1333 134.953 10.32C134.393 10.5067 133.886 10.7733 133.433 11.12C133.006 11.44 132.606 11.8533 132.233 12.36C131.859 12.84 131.486 13.3867 131.113 14L129.033 11.92C129.406 11.52 129.793 11.12 130.193 10.72C130.619 10.32 131.126 9.96 131.713 9.64C132.326 9.32 133.046 9.06667 133.873 8.88C134.699 8.66667 135.699 8.56 136.872 8.56ZM141.473 21.08C141.339 20.76 141.139 20.3867 140.873 19.96C140.633 19.5333 140.313 19.12 139.913 18.72C139.513 18.32 139.033 17.9867 138.473 17.72C137.913 17.4267 137.246 17.28 136.473 17.28C135.699 17.28 134.993 17.44 134.353 17.76C133.713 18.0533 133.166 18.4533 132.713 18.96C132.286 19.44 131.953 20.0133 131.713 20.68C131.473 21.3467 131.353 22.04 131.353 22.76C131.353 23.6133 131.499 24.36 131.793 25C132.113 25.6133 132.513 26.1467 132.993 26.6C133.473 27.0267 134.006 27.3467 134.593 27.56C135.179 27.7733 135.739 27.88 136.273 27.88C136.779 27.88 137.286 27.7867 137.793 27.6C138.326 27.4133 138.819 27.16 139.273 26.84C139.753 26.4933 140.179 26.0933 140.553 25.64C140.926 25.1867 141.233 24.6933 141.473 24.16V21.08ZM23.36 48H25.2V76.48H25L2.8 54.6H2.64V76H0.8V47.52H1L23.2 69.4H23.36V48ZM50.9444 66.88H35.7444C35.7444 68.5067 35.9844 69.84 36.4644 70.88C36.9444 71.92 37.5444 72.7333 38.2644 73.32C38.9844 73.9067 39.7577 74.32 40.5844 74.56C41.4377 74.7733 42.2377 74.88 42.9844 74.88C43.651 74.88 44.251 74.8133 44.7844 74.68C45.3444 74.52 45.8777 74.3067 46.3844 74.04C46.891 73.7733 47.3844 73.44 47.8644 73.04C48.371 72.64 48.9044 72.2 49.4644 71.72L50.7444 73C49.6777 74.12 48.4244 74.9867 46.9844 75.6C45.5444 76.1867 43.971 76.48 42.2644 76.48C40.5044 76.48 38.971 76.1867 37.6644 75.6C36.3844 74.9867 35.3177 74.1867 34.4644 73.2C33.6377 72.1867 33.011 71.0533 32.5844 69.8C32.1844 68.52 31.9844 67.2133 31.9844 65.88C31.9844 64.28 32.2244 62.8533 32.7044 61.6C33.1844 60.32 33.851 59.24 34.7044 58.36C35.5577 57.4533 36.5577 56.7733 37.7044 56.32C38.851 55.84 40.1044 55.6 41.4644 55.6C42.7444 55.6 43.9577 55.8133 45.1044 56.24C46.251 56.6667 47.251 57.3067 48.1044 58.16C48.9844 59.0133 49.6777 60.0933 50.1844 61.4C50.691 62.7067 50.9444 64.2533 50.9444 66.04V66.88ZM35.7444 65.28H47.4644C47.4644 62.6933 46.931 60.6667 45.8644 59.2C44.8244 57.7067 43.3577 56.96 41.4644 56.96C40.4777 56.96 39.6244 57.2 38.9044 57.68C38.1844 58.1333 37.5844 58.7467 37.1044 59.52C36.651 60.2933 36.3044 61.1867 36.0644 62.2C35.851 63.1867 35.7444 64.2133 35.7444 65.28ZM54.1531 57.6V56H57.6331V49.84H61.0331V56H65.8731V57.6H61.0331V70.88C61.0331 71.2 61.0465 71.5733 61.0731 72C61.0998 72.4 61.1798 72.7867 61.3131 73.16C61.4465 73.5067 61.6465 73.8 61.9131 74.04C62.2065 74.28 62.6065 74.4 63.1131 74.4C63.7531 74.4 64.2865 74.16 64.7131 73.68C65.1398 73.2 65.4865 72.68 65.7531 72.12L67.6331 74.04C66.3265 75.3467 64.8465 76 63.1931 76C62.4998 76 61.8198 75.88 61.1531 75.64C60.4865 75.4 59.8865 75.04 59.3531 74.56C58.8465 74.0533 58.4331 73.4133 58.1131 72.64C57.7931 71.8667 57.6331 70.96 57.6331 69.92V57.6H54.1531ZM68.7531 56H72.2331L77.4331 71.08H77.5931L82.8331 56H83.6331L89.3131 70.96H89.4731L94.9131 56H96.9931L89.7131 76H87.8331L82.6331 62.6H82.4731L77.8331 76H75.6731L68.7531 56ZM120.517 66.04C120.517 67.4267 120.277 68.76 119.797 70.04C119.317 71.2933 118.624 72.4 117.717 73.36C116.837 74.32 115.757 75.08 114.477 75.64C113.224 76.2 111.81 76.48 110.237 76.48C108.637 76.48 107.184 76.2 105.877 75.64C104.597 75.0533 103.504 74.28 102.597 73.32C101.717 72.36 101.024 71.2533 100.517 70C100.037 68.72 99.7969 67.4 99.7969 66.04C99.7969 64.6533 100.037 63.3333 100.517 62.08C101.024 60.8 101.717 59.68 102.597 58.72C103.504 57.76 104.597 57 105.877 56.44C107.184 55.8533 108.637 55.56 110.237 55.56C111.81 55.56 113.224 55.8533 114.477 56.44C115.757 57 116.837 57.76 117.717 58.72C118.624 59.68 119.317 60.8 119.797 62.08C120.277 63.3333 120.517 64.6533 120.517 66.04ZM116.717 66.04C116.717 64.1733 116.517 62.6667 116.117 61.52C115.717 60.3467 115.197 59.44 114.557 58.8C113.917 58.16 113.21 57.7333 112.437 57.52C111.664 57.28 110.917 57.16 110.197 57.16C109.477 57.16 108.73 57.28 107.957 57.52C107.184 57.7333 106.464 58.16 105.797 58.8C105.157 59.44 104.624 60.3467 104.197 61.52C103.797 62.6667 103.597 64.1733 103.597 66.04C103.597 67.88 103.797 69.3867 104.197 70.56C104.624 71.7067 105.157 72.6 105.797 73.24C106.464 73.88 107.184 74.32 107.957 74.56C108.73 74.7733 109.477 74.88 110.197 74.88C110.917 74.88 111.664 74.7733 112.437 74.56C113.21 74.32 113.917 73.88 114.557 73.24C115.197 72.6 115.717 71.7067 116.117 70.56C116.517 69.3867 116.717 67.88 116.717 66.04ZM125.723 56H129.123V59.2H129.363C129.843 58 130.457 57.0933 131.203 56.48C131.95 55.8667 132.883 55.56 134.003 55.56C134.137 55.56 134.337 55.5867 134.603 55.64C134.897 55.6667 135.203 55.7467 135.523 55.88C135.87 55.9867 136.203 56.1467 136.523 56.36C136.87 56.5733 137.163 56.84 137.403 57.16L136.043 59.64C135.803 59.2933 135.417 58.92 134.883 58.52C134.377 58.12 133.817 57.92 133.203 57.92C132.75 57.92 132.283 58.0267 131.803 58.24C131.323 58.4533 130.883 58.8 130.483 59.28C130.083 59.76 129.75 60.3867 129.483 61.16C129.243 61.9067 129.123 62.8267 129.123 63.92V76H125.723V56ZM144.397 48V65.92L154.237 56H156.837L149.197 63.68L159.237 76H154.757L146.717 66.12L144.397 68.48V76H140.997V48H144.397ZM175.202 60.56H172.922C172.922 60.2133 172.829 59.84 172.642 59.44C172.456 59.04 172.162 58.68 171.762 58.36C171.362 58.0133 170.869 57.7333 170.282 57.52C169.696 57.28 169.002 57.16 168.202 57.16C167.402 57.16 166.736 57.28 166.202 57.52C165.669 57.7333 165.242 58.0133 164.922 58.36C164.602 58.68 164.376 59.04 164.242 59.44C164.109 59.8133 164.042 60.1733 164.042 60.52C164.042 61.3467 164.336 61.9867 164.922 62.44C165.536 62.8933 166.296 63.28 167.202 63.6C168.109 63.92 169.082 64.2267 170.122 64.52C171.189 64.8133 172.176 65.2 173.082 65.68C173.989 66.1333 174.736 66.7467 175.322 67.52C175.936 68.2933 176.242 69.32 176.242 70.6C176.242 72.36 175.616 73.7867 174.362 74.88C173.136 75.9467 171.296 76.48 168.842 76.48C167.482 76.48 166.282 76.32 165.242 76C164.229 75.6533 163.362 75.2 162.642 74.64C161.949 74.08 161.429 73.4533 161.082 72.76C160.736 72.04 160.562 71.3067 160.562 70.56H163.162C163.162 70.88 163.256 71.28 163.442 71.76C163.656 72.24 163.989 72.72 164.442 73.2C164.922 73.6533 165.522 74.0533 166.242 74.4C166.989 74.72 167.896 74.88 168.962 74.88C169.816 74.88 170.522 74.7733 171.082 74.56C171.642 74.32 172.082 74.04 172.402 73.72C172.722 73.3733 172.936 73 173.042 72.6C173.176 72.2 173.242 71.8133 173.242 71.44C173.242 70.56 172.949 69.8667 172.362 69.36C171.776 68.8533 171.042 68.44 170.162 68.12C169.282 67.7733 168.322 67.4667 167.282 67.2C166.269 66.9067 165.322 66.5333 164.442 66.08C163.562 65.6267 162.829 65.0267 162.242 64.28C161.656 63.5333 161.362 62.52 161.362 61.24C161.362 60.3067 161.536 59.4933 161.882 58.8C162.229 58.08 162.696 57.48 163.282 57C163.896 56.52 164.602 56.16 165.402 55.92C166.229 55.68 167.109 55.56 168.042 55.56C169.029 55.56 169.949 55.6933 170.802 55.96C171.682 56.2 172.442 56.5467 173.082 57C173.749 57.4267 174.269 57.9467 174.642 58.56C175.016 59.1733 175.202 59.84 175.202 60.56ZM3.13453 82.2H4.40853V92H3.13453V82.2ZM13.6224 92H12.4324V87.394C12.4324 87.3007 12.4231 87.1513 12.4044 86.946C12.3857 86.7407 12.3251 86.5353 12.2224 86.33C12.1291 86.1247 11.9751 85.9473 11.7604 85.798C11.5457 85.6393 11.2424 85.56 10.8504 85.56C10.6077 85.56 10.3697 85.602 10.1364 85.686C9.91239 85.77 9.71172 85.9007 9.53439 86.078C9.35706 86.2553 9.21706 86.4747 9.11439 86.736C9.01172 86.9973 8.96039 87.31 8.96039 87.674V92H7.77039V85H8.96039V85.896H9.01639L9.24039 85.672C9.56706 85.3453 9.89839 85.126 10.2344 85.014C10.5704 84.8927 10.8737 84.8367 11.1444 84.846C11.7604 84.846 12.2364 84.9533 12.5724 85.168C12.9084 85.3733 13.1511 85.6207 13.3004 85.91C13.4591 86.19 13.5524 86.4793 13.5804 86.778C13.6084 87.0673 13.6224 87.296 13.6224 87.464V92ZM22.7372 88.514C22.7372 88.9993 22.6532 89.466 22.4852 89.914C22.3172 90.3527 22.0745 90.74 21.7572 91.076C21.4492 91.412 21.0712 91.678 20.6232 91.874C20.1845 92.07 19.6898 92.168 19.1392 92.168C18.5792 92.168 18.0705 92.07 17.6132 91.874C17.1652 91.6687 16.7825 91.398 16.4652 91.062C16.1572 90.726 15.9145 90.3387 15.7372 89.9C15.5692 89.452 15.4852 88.99 15.4852 88.514C15.4852 88.0287 15.5692 87.5667 15.7372 87.128C15.9145 86.68 16.1572 86.288 16.4652 85.952C16.7825 85.616 17.1652 85.35 17.6132 85.154C18.0705 84.9487 18.5792 84.846 19.1392 84.846C19.6898 84.846 20.1845 84.9487 20.6232 85.154C21.0712 85.35 21.4492 85.616 21.7572 85.952C22.0745 86.288 22.3172 86.68 22.4852 87.128C22.6532 87.5667 22.7372 88.0287 22.7372 88.514ZM21.4072 88.514C21.4072 87.8607 21.3372 87.3333 21.1972 86.932C21.0572 86.5213 20.8752 86.204 20.6512 85.98C20.4272 85.756 20.1798 85.6067 19.9092 85.532C19.6385 85.448 19.3772 85.406 19.1252 85.406C18.8732 85.406 18.6118 85.448 18.3412 85.532C18.0705 85.6067 17.8185 85.756 17.5852 85.98C17.3612 86.204 17.1745 86.5213 17.0252 86.932C16.8852 87.3333 16.8152 87.8607 16.8152 88.514C16.8152 89.158 16.8852 89.6853 17.0252 90.096C17.1745 90.4973 17.3612 90.81 17.5852 91.034C17.8185 91.258 18.0705 91.412 18.3412 91.496C18.6118 91.5707 18.8732 91.608 19.1252 91.608C19.3772 91.608 19.6385 91.5707 19.9092 91.496C20.1798 91.412 20.4272 91.258 20.6512 91.034C20.8752 90.81 21.0572 90.4973 21.1972 90.096C21.3372 89.6853 21.4072 89.158 21.4072 88.514ZM23.7195 85H24.9515L27.2895 90.614H27.3735L29.6415 85H30.2995L27.4715 92H26.6315L23.7195 85ZM34.2722 84.846C34.9535 84.846 35.4808 84.944 35.8542 85.14C36.2275 85.3267 36.4982 85.574 36.6662 85.882C36.8435 86.19 36.9462 86.5447 36.9742 86.946C37.0022 87.3473 37.0162 87.758 37.0162 88.178V92H35.8822V91.314C35.6115 91.5753 35.2662 91.7853 34.8462 91.944C34.4262 92.0933 34.0062 92.168 33.5862 92.168C33.1848 92.168 32.8302 92.098 32.5222 91.958C32.2142 91.818 31.9575 91.636 31.7522 91.412C31.5468 91.188 31.3928 90.936 31.2902 90.656C31.1875 90.376 31.1362 90.0913 31.1362 89.802C31.1362 89.5033 31.1922 89.2047 31.3042 88.906C31.4162 88.6073 31.5842 88.3413 31.8082 88.108C32.0322 87.8653 32.3075 87.6693 32.6342 87.52C32.9608 87.3707 33.3342 87.296 33.7542 87.296C34.1742 87.296 34.5708 87.38 34.9442 87.548C35.3268 87.7067 35.6395 87.9353 35.8822 88.234V87.632C35.8822 86.8667 35.7655 86.2973 35.5322 85.924C35.3082 85.5507 34.8928 85.364 34.2862 85.364C34.0248 85.364 33.7962 85.3967 33.6002 85.462C33.4042 85.5273 33.2268 85.6207 33.0682 85.742C32.9188 85.854 32.7788 85.9987 32.6482 86.176C32.5175 86.344 32.3868 86.5353 32.2562 86.75L31.5282 86.022C31.6588 85.882 31.7942 85.742 31.9342 85.602C32.0835 85.462 32.2608 85.336 32.4662 85.224C32.6808 85.112 32.9328 85.0233 33.2222 84.958C33.5115 84.8833 33.8615 84.846 34.2722 84.846ZM35.8822 89.228C35.8355 89.116 35.7655 88.9853 35.6722 88.836C35.5882 88.6867 35.4762 88.542 35.3362 88.402C35.1962 88.262 35.0282 88.1453 34.8322 88.052C34.6362 87.9493 34.4028 87.898 34.1322 87.898C33.8615 87.898 33.6142 87.954 33.3902 88.066C33.1662 88.1687 32.9748 88.3087 32.8162 88.486C32.6668 88.654 32.5502 88.8547 32.4662 89.088C32.3822 89.3213 32.3402 89.564 32.3402 89.816C32.3402 90.1147 32.3915 90.376 32.4942 90.6C32.6062 90.8147 32.7462 91.0013 32.9142 91.16C33.0822 91.3093 33.2688 91.4213 33.4742 91.496C33.6795 91.5707 33.8755 91.608 34.0622 91.608C34.2395 91.608 34.4168 91.5753 34.5942 91.51C34.7808 91.4447 34.9535 91.356 35.1122 91.244C35.2802 91.1227 35.4295 90.9827 35.5602 90.824C35.6908 90.6653 35.7982 90.4927 35.8822 90.306V89.228ZM45.1087 92H43.9187V87.394C43.9187 87.3007 43.9094 87.1513 43.8907 86.946C43.8721 86.7407 43.8114 86.5353 43.7087 86.33C43.6154 86.1247 43.4614 85.9473 43.2467 85.798C43.0321 85.6393 42.7287 85.56 42.3367 85.56C42.0941 85.56 41.8561 85.602 41.6227 85.686C41.3987 85.77 41.1981 85.9007 41.0207 86.078C40.8434 86.2553 40.7034 86.4747 40.6007 86.736C40.4981 86.9973 40.4467 87.31 40.4467 87.674V92H39.2567V85H40.4467V85.896H40.5027L40.7267 85.672C41.0534 85.3453 41.3847 85.126 41.7207 85.014C42.0567 84.8927 42.3601 84.8367 42.6307 84.846C43.2467 84.846 43.7227 84.9533 44.0587 85.168C44.3947 85.3733 44.6374 85.6207 44.7867 85.91C44.9454 86.19 45.0387 86.4793 45.0667 86.778C45.0947 87.0673 45.1087 87.296 45.1087 87.464V92ZM53.6075 82.2V92H52.4175V90.866H52.3615C52.0068 91.734 51.2788 92.168 50.1775 92.168C49.7108 92.168 49.2815 92.084 48.8895 91.916C48.4975 91.7387 48.1568 91.4913 47.8675 91.174C47.5875 90.8473 47.3682 90.46 47.2095 90.012C47.0508 89.5547 46.9715 89.046 46.9715 88.486C46.9715 87.9353 47.0508 87.436 47.2095 86.988C47.3682 86.54 47.5875 86.1573 47.8675 85.84C48.1568 85.5227 48.4975 85.28 48.8895 85.112C49.2815 84.9347 49.7108 84.846 50.1775 84.846C50.4015 84.846 50.6208 84.8693 50.8355 84.916C51.0595 84.9627 51.2695 85.0373 51.4655 85.14C51.6615 85.2427 51.8342 85.378 51.9835 85.546C52.1422 85.7047 52.2682 85.9053 52.3615 86.148H52.4175V82.2H53.6075ZM52.4175 89.2V87.982C52.4175 87.5993 52.3615 87.2587 52.2495 86.96C52.1468 86.6613 52.0068 86.4093 51.8295 86.204C51.6522 85.9893 51.4468 85.8307 51.2135 85.728C50.9802 85.616 50.7328 85.56 50.4715 85.56C50.1822 85.56 49.9068 85.616 49.6455 85.728C49.3842 85.8307 49.1508 86.0033 48.9455 86.246C48.7495 86.4793 48.5908 86.7827 48.4695 87.156C48.3575 87.5293 48.3015 87.982 48.3015 88.514C48.3015 89.0367 48.3575 89.4847 48.4695 89.858C48.5908 90.2313 48.7495 90.5347 48.9455 90.768C49.1415 91.0013 49.3702 91.174 49.6315 91.286C49.8928 91.3887 50.1728 91.44 50.4715 91.44C50.7422 91.44 50.9942 91.384 51.2275 91.272C51.4702 91.1507 51.6755 90.992 51.8435 90.796C52.0208 90.5907 52.1608 90.3527 52.2635 90.082C52.3662 89.802 52.4175 89.508 52.4175 89.2ZM62.6727 88.514C62.6727 88.9993 62.5887 89.466 62.4207 89.914C62.2527 90.3527 62.01 90.74 61.6927 91.076C61.3847 91.412 61.0067 91.678 60.5587 91.874C60.12 92.07 59.6254 92.168 59.0747 92.168C58.5147 92.168 58.006 92.07 57.5487 91.874C57.1007 91.6687 56.718 91.398 56.4007 91.062C56.0927 90.726 55.85 90.3387 55.6727 89.9C55.5047 89.452 55.4207 88.99 55.4207 88.514C55.4207 88.0287 55.5047 87.5667 55.6727 87.128C55.85 86.68 56.0927 86.288 56.4007 85.952C56.718 85.616 57.1007 85.35 57.5487 85.154C58.006 84.9487 58.5147 84.846 59.0747 84.846C59.6254 84.846 60.12 84.9487 60.5587 85.154C61.0067 85.35 61.3847 85.616 61.6927 85.952C62.01 86.288 62.2527 86.68 62.4207 87.128C62.5887 87.5667 62.6727 88.0287 62.6727 88.514ZM61.3427 88.514C61.3427 87.8607 61.2727 87.3333 61.1327 86.932C60.9927 86.5213 60.8107 86.204 60.5867 85.98C60.3627 85.756 60.1154 85.6067 59.8447 85.532C59.574 85.448 59.3127 85.406 59.0607 85.406C58.8087 85.406 58.5474 85.448 58.2767 85.532C58.006 85.6067 57.754 85.756 57.5207 85.98C57.2967 86.204 57.11 86.5213 56.9607 86.932C56.8207 87.3333 56.7507 87.8607 56.7507 88.514C56.7507 89.158 56.8207 89.6853 56.9607 90.096C57.11 90.4973 57.2967 90.81 57.5207 91.034C57.754 91.258 58.006 91.412 58.2767 91.496C58.5474 91.5707 58.8087 91.608 59.0607 91.608C59.3127 91.608 59.574 91.5707 59.8447 91.496C60.1154 91.412 60.3627 91.258 60.5867 91.034C60.8107 90.81 60.9927 90.4973 61.1327 90.096C61.2727 89.6853 61.3427 89.158 61.3427 88.514ZM75.2415 92H74.0515V87.394C74.0515 87.3007 74.0422 87.1513 74.0235 86.946C74.0049 86.7407 73.9442 86.5353 73.8415 86.33C73.7482 86.1247 73.5942 85.9473 73.3795 85.798C73.1649 85.6393 72.8615 85.56 72.4695 85.56C72.2269 85.56 71.9889 85.602 71.7555 85.686C71.5315 85.77 71.3309 85.9007 71.1535 86.078C70.9762 86.2553 70.8362 86.4747 70.7335 86.736C70.6309 86.9973 70.5795 87.31 70.5795 87.674V92H69.3895V85H70.5795V85.896H70.6355L70.8595 85.672C71.1862 85.3453 71.5175 85.126 71.8535 85.014C72.1895 84.8927 72.4929 84.8367 72.7635 84.846C73.3795 84.846 73.8555 84.9533 74.1915 85.168C74.5275 85.3733 74.7702 85.6207 74.9195 85.91C75.0782 86.19 75.1715 86.4793 75.1995 86.778C75.2275 87.0673 75.2415 87.296 75.2415 87.464V92ZM84.3563 88.514C84.3563 88.9993 84.2723 89.466 84.1043 89.914C83.9363 90.3527 83.6936 90.74 83.3763 91.076C83.0683 91.412 82.6903 91.678 82.2423 91.874C81.8036 92.07 81.309 92.168 80.7583 92.168C80.1983 92.168 79.6896 92.07 79.2323 91.874C78.7843 91.6687 78.4016 91.398 78.0843 91.062C77.7763 90.726 77.5336 90.3387 77.3563 89.9C77.1883 89.452 77.1043 88.99 77.1043 88.514C77.1043 88.0287 77.1883 87.5667 77.3563 87.128C77.5336 86.68 77.7763 86.288 78.0843 85.952C78.4016 85.616 78.7843 85.35 79.2323 85.154C79.6896 84.9487 80.1983 84.846 80.7583 84.846C81.309 84.846 81.8036 84.9487 82.2423 85.154C82.6903 85.35 83.0683 85.616 83.3763 85.952C83.6936 86.288 83.9363 86.68 84.1043 87.128C84.2723 87.5667 84.3563 88.0287 84.3563 88.514ZM83.0263 88.514C83.0263 87.8607 82.9563 87.3333 82.8163 86.932C82.6763 86.5213 82.4943 86.204 82.2703 85.98C82.0463 85.756 81.799 85.6067 81.5283 85.532C81.2576 85.448 80.9963 85.406 80.7443 85.406C80.4923 85.406 80.231 85.448 79.9603 85.532C79.6896 85.6067 79.4376 85.756 79.2043 85.98C78.9803 86.204 78.7936 86.5213 78.6443 86.932C78.5043 87.3333 78.4343 87.8607 78.4343 88.514C78.4343 89.158 78.5043 89.6853 78.6443 90.096C78.7936 90.4973 78.9803 90.81 79.2043 91.034C79.4376 91.258 79.6896 91.412 79.9603 91.496C80.231 91.5707 80.4923 91.608 80.7443 91.608C80.9963 91.608 81.2576 91.5707 81.5283 91.496C81.799 91.412 82.0463 91.258 82.2703 91.034C82.4943 90.81 82.6763 90.4973 82.8163 90.096C82.9563 89.6853 83.0263 89.158 83.0263 88.514ZM92.2631 92H91.0731V85H92.2631V86.134H92.3191C92.4311 85.8633 92.5711 85.644 92.7391 85.476C92.9165 85.308 93.1031 85.1773 93.2991 85.084C93.4951 84.9907 93.6911 84.93 93.8871 84.902C94.0831 84.8647 94.2511 84.846 94.3911 84.846C94.6991 84.846 94.9605 84.888 95.1751 84.972C95.3991 85.056 95.5905 85.1633 95.7491 85.294C95.9078 85.4247 96.0385 85.5693 96.1411 85.728C96.2438 85.8773 96.3231 86.0267 96.3791 86.176H96.4771C96.6171 85.8867 96.7805 85.6533 96.9671 85.476C97.1631 85.2987 97.3638 85.1633 97.5691 85.07C97.7745 84.9767 97.9705 84.916 98.1571 84.888C98.3438 84.86 98.5071 84.846 98.6471 84.846C99.1325 84.846 99.5198 84.9253 99.8091 85.084C100.108 85.2333 100.332 85.4247 100.481 85.658C100.64 85.882 100.742 86.1293 100.789 86.4C100.836 86.6613 100.859 86.8993 100.859 87.114V92H99.6691V87.52C99.6691 87.2027 99.6505 86.9227 99.6131 86.68C99.5851 86.4373 99.5198 86.232 99.4171 86.064C99.3238 85.896 99.1885 85.77 99.0111 85.686C98.8338 85.602 98.6005 85.56 98.3111 85.56C97.9191 85.56 97.6065 85.6487 97.3731 85.826C97.1491 86.0033 96.9765 86.218 96.8551 86.47C96.7338 86.722 96.6545 86.9927 96.6171 87.282C96.5798 87.562 96.5611 87.8047 96.5611 88.01V92H95.3711V87.52C95.3711 87.352 95.3618 87.156 95.3431 86.932C95.3338 86.708 95.2871 86.4933 95.2031 86.288C95.1191 86.0827 94.9885 85.91 94.8111 85.77C94.6431 85.63 94.4005 85.56 94.0831 85.56C93.6445 85.56 93.3038 85.658 93.0611 85.854C92.8185 86.0407 92.6365 86.2693 92.5151 86.54C92.4031 86.8013 92.3331 87.072 92.3051 87.352C92.2771 87.6227 92.2631 87.842 92.2631 88.01V92ZM103.104 85H104.294V89.62C104.294 89.7133 104.304 89.8627 104.322 90.068C104.341 90.264 104.402 90.4647 104.504 90.67C104.616 90.8753 104.78 91.0573 104.994 91.216C105.218 91.3653 105.526 91.44 105.918 91.44C106.161 91.44 106.394 91.398 106.618 91.314C106.842 91.23 107.038 91.104 107.206 90.936C107.374 90.7587 107.51 90.5393 107.612 90.278C107.715 90.0167 107.766 89.704 107.766 89.34V85H108.956V92H107.766V91.118H107.71L107.486 91.342C107.16 91.6687 106.833 91.888 106.506 92C106.189 92.1213 105.895 92.1773 105.624 92.168C105.008 92.168 104.528 92.0653 104.182 91.86C103.846 91.6453 103.599 91.398 103.44 91.118C103.282 90.8287 103.184 90.5393 103.146 90.25C103.118 89.9513 103.104 89.718 103.104 89.55V85ZM117.091 92H115.901V87.394C115.901 87.3007 115.892 87.1513 115.873 86.946C115.854 86.7407 115.794 86.5353 115.691 86.33C115.598 86.1247 115.444 85.9473 115.229 85.798C115.014 85.6393 114.711 85.56 114.319 85.56C114.076 85.56 113.838 85.602 113.605 85.686C113.381 85.77 113.18 85.9007 113.003 86.078C112.826 86.2553 112.686 86.4747 112.583 86.736C112.48 86.9973 112.429 87.31 112.429 87.674V92H111.239V85H112.429V85.896H112.485L112.709 85.672C113.036 85.3453 113.367 85.126 113.703 85.014C114.039 84.8927 114.342 84.8367 114.613 84.846C115.229 84.846 115.705 84.9533 116.041 85.168C116.377 85.3733 116.62 85.6207 116.769 85.91C116.928 86.19 117.021 86.4793 117.049 86.778C117.077 87.0673 117.091 87.296 117.091 87.464V92ZM125.59 82.2V92H124.4V90.866H124.344C123.989 91.734 123.261 92.168 122.16 92.168C121.693 92.168 121.264 92.084 120.872 91.916C120.48 91.7387 120.139 91.4913 119.85 91.174C119.57 90.8473 119.351 90.46 119.192 90.012C119.033 89.5547 118.954 89.046 118.954 88.486C118.954 87.9353 119.033 87.436 119.192 86.988C119.351 86.54 119.57 86.1573 119.85 85.84C120.139 85.5227 120.48 85.28 120.872 85.112C121.264 84.9347 121.693 84.846 122.16 84.846C122.384 84.846 122.603 84.8693 122.818 84.916C123.042 84.9627 123.252 85.0373 123.448 85.14C123.644 85.2427 123.817 85.378 123.966 85.546C124.125 85.7047 124.251 85.9053 124.344 86.148H124.4V82.2H125.59ZM124.4 89.2V87.982C124.4 87.5993 124.344 87.2587 124.232 86.96C124.129 86.6613 123.989 86.4093 123.812 86.204C123.635 85.9893 123.429 85.8307 123.196 85.728C122.963 85.616 122.715 85.56 122.454 85.56C122.165 85.56 121.889 85.616 121.628 85.728C121.367 85.8307 121.133 86.0033 120.928 86.246C120.732 86.4793 120.573 86.7827 120.452 87.156C120.34 87.5293 120.284 87.982 120.284 88.514C120.284 89.0367 120.34 89.4847 120.452 89.858C120.573 90.2313 120.732 90.5347 120.928 90.768C121.124 91.0013 121.353 91.174 121.614 91.286C121.875 91.3887 122.155 91.44 122.454 91.44C122.725 91.44 122.977 91.384 123.21 91.272C123.453 91.1507 123.658 90.992 123.826 90.796C124.003 90.5907 124.143 90.3527 124.246 90.082C124.349 89.802 124.4 89.508 124.4 89.2ZM134.655 88.514C134.655 88.9993 134.571 89.466 134.403 89.914C134.235 90.3527 133.992 90.74 133.675 91.076C133.367 91.412 132.989 91.678 132.541 91.874C132.102 92.07 131.608 92.168 131.057 92.168C130.497 92.168 129.988 92.07 129.531 91.874C129.083 91.6687 128.7 91.398 128.383 91.062C128.075 90.726 127.832 90.3387 127.655 89.9C127.487 89.452 127.403 88.99 127.403 88.514C127.403 88.0287 127.487 87.5667 127.655 87.128C127.832 86.68 128.075 86.288 128.383 85.952C128.7 85.616 129.083 85.35 129.531 85.154C129.988 84.9487 130.497 84.846 131.057 84.846C131.608 84.846 132.102 84.9487 132.541 85.154C132.989 85.35 133.367 85.616 133.675 85.952C133.992 86.288 134.235 86.68 134.403 87.128C134.571 87.5667 134.655 88.0287 134.655 88.514ZM133.325 88.514C133.325 87.8607 133.255 87.3333 133.115 86.932C132.975 86.5213 132.793 86.204 132.569 85.98C132.345 85.756 132.098 85.6067 131.827 85.532C131.556 85.448 131.295 85.406 131.043 85.406C130.791 85.406 130.53 85.448 130.259 85.532C129.988 85.6067 129.736 85.756 129.503 85.98C129.279 86.204 129.092 86.5213 128.943 86.932C128.803 87.3333 128.733 87.8607 128.733 88.514C128.733 89.158 128.803 89.6853 128.943 90.096C129.092 90.4973 129.279 90.81 129.503 91.034C129.736 91.258 129.988 91.412 130.259 91.496C130.53 91.5707 130.791 91.608 131.043 91.608C131.295 91.608 131.556 91.5707 131.827 91.496C132.098 91.412 132.345 91.258 132.569 91.034C132.793 90.81 132.975 90.4973 133.115 90.096C133.255 89.6853 133.325 89.158 133.325 88.514ZM147.588 82.2V92H146.398V90.866H146.342C145.987 91.734 145.259 92.168 144.158 92.168C143.691 92.168 143.262 92.084 142.87 91.916C142.478 91.7387 142.137 91.4913 141.848 91.174C141.568 90.8473 141.349 90.46 141.19 90.012C141.031 89.5547 140.952 89.046 140.952 88.486C140.952 87.9353 141.031 87.436 141.19 86.988C141.349 86.54 141.568 86.1573 141.848 85.84C142.137 85.5227 142.478 85.28 142.87 85.112C143.262 84.9347 143.691 84.846 144.158 84.846C144.382 84.846 144.601 84.8693 144.816 84.916C145.04 84.9627 145.25 85.0373 145.446 85.14C145.642 85.2427 145.815 85.378 145.964 85.546C146.123 85.7047 146.249 85.9053 146.342 86.148H146.398V82.2H147.588ZM146.398 89.2V87.982C146.398 87.5993 146.342 87.2587 146.23 86.96C146.127 86.6613 145.987 86.4093 145.81 86.204C145.633 85.9893 145.427 85.8307 145.194 85.728C144.961 85.616 144.713 85.56 144.452 85.56C144.163 85.56 143.887 85.616 143.626 85.728C143.365 85.8307 143.131 86.0033 142.926 86.246C142.73 86.4793 142.571 86.7827 142.45 87.156C142.338 87.5293 142.282 87.982 142.282 88.514C142.282 89.0367 142.338 89.4847 142.45 89.858C142.571 90.2313 142.73 90.5347 142.926 90.768C143.122 91.0013 143.351 91.174 143.612 91.286C143.873 91.3887 144.153 91.44 144.452 91.44C144.723 91.44 144.975 91.384 145.208 91.272C145.451 91.1507 145.656 90.992 145.824 90.796C146.001 90.5907 146.141 90.3527 146.244 90.082C146.347 89.802 146.398 89.508 146.398 89.2ZM150.269 85H151.459V92H150.269V85ZM150.101 82.788C150.101 82.5827 150.176 82.4053 150.325 82.256C150.475 82.1067 150.652 82.032 150.857 82.032C151.063 82.032 151.24 82.1067 151.389 82.256C151.539 82.4053 151.613 82.5827 151.613 82.788C151.613 82.9933 151.539 83.1707 151.389 83.32C151.24 83.4693 151.063 83.544 150.857 83.544C150.652 83.544 150.475 83.4693 150.325 83.32C150.176 83.1707 150.101 82.9933 150.101 82.788ZM159.126 92.588V90.88H159.07C158.911 91.328 158.636 91.6547 158.244 91.86C157.861 92.0653 157.408 92.168 156.886 92.168C156.41 92.168 155.976 92.084 155.584 91.916C155.201 91.7387 154.87 91.4913 154.59 91.174C154.31 90.8473 154.09 90.46 153.932 90.012C153.782 89.5547 153.708 89.046 153.708 88.486C153.708 87.9353 153.782 87.436 153.932 86.988C154.09 86.54 154.31 86.1573 154.59 85.84C154.87 85.5227 155.206 85.28 155.598 85.112C155.99 84.9347 156.424 84.846 156.9 84.846C157.497 84.846 157.978 84.958 158.342 85.182C158.715 85.3967 158.958 85.7 159.07 86.092H159.126V85H160.316V91.874C160.316 92.3407 160.269 92.7887 160.176 93.218C160.092 93.6567 159.928 94.044 159.686 94.38C159.443 94.716 159.102 94.982 158.664 95.178C158.225 95.3833 157.651 95.486 156.942 95.486C156.559 95.486 156.218 95.4347 155.92 95.332C155.621 95.2387 155.364 95.122 155.15 94.982C154.935 94.8513 154.758 94.716 154.618 94.576C154.478 94.4453 154.375 94.338 154.31 94.254L155.08 93.554C155.332 93.974 155.607 94.31 155.906 94.562C156.214 94.814 156.615 94.94 157.11 94.94C157.39 94.94 157.651 94.898 157.894 94.814C158.146 94.73 158.36 94.5947 158.538 94.408C158.724 94.2213 158.869 93.9787 158.972 93.68C159.074 93.3813 159.126 93.0173 159.126 92.588ZM159.126 89.018V87.982C159.126 87.6647 159.084 87.3567 159 87.058C158.916 86.7593 158.79 86.498 158.622 86.274C158.463 86.0407 158.262 85.8587 158.02 85.728C157.777 85.588 157.502 85.518 157.194 85.518C157.054 85.518 156.858 85.5507 156.606 85.616C156.363 85.672 156.12 85.8027 155.878 86.008C155.644 86.2133 155.439 86.512 155.262 86.904C155.084 87.2867 154.996 87.8047 154.996 88.458C154.996 89.074 155.066 89.578 155.206 89.97C155.355 90.362 155.537 90.6653 155.752 90.88C155.976 91.0947 156.214 91.244 156.466 91.328C156.727 91.4027 156.97 91.44 157.194 91.44C157.446 91.44 157.688 91.3887 157.922 91.286C158.155 91.174 158.36 91.0153 158.538 90.81C158.715 90.6047 158.855 90.3527 158.958 90.054C159.07 89.7553 159.126 89.41 159.126 89.018ZM162.998 85H164.188V92H162.998V85ZM162.83 82.788C162.83 82.5827 162.904 82.4053 163.054 82.256C163.203 82.1067 163.38 82.032 163.586 82.032C163.791 82.032 163.968 82.1067 164.118 82.256C164.267 82.4053 164.342 82.5827 164.342 82.788C164.342 82.9933 164.267 83.1707 164.118 83.32C163.968 83.4693 163.791 83.544 163.586 83.544C163.38 83.544 163.203 83.4693 163.054 83.32C162.904 83.1707 162.83 82.9933 162.83 82.788ZM166.156 85.56V85H167.374V82.844H168.564V85H170.258V85.56H168.564V90.208C168.564 90.32 168.569 90.4507 168.578 90.6C168.588 90.74 168.616 90.8753 168.662 91.006C168.709 91.1273 168.779 91.23 168.872 91.314C168.975 91.398 169.115 91.44 169.292 91.44C169.516 91.44 169.703 91.356 169.852 91.188C170.002 91.02 170.123 90.838 170.216 90.642L170.874 91.314C170.417 91.7713 169.899 92 169.32 92C169.078 92 168.84 91.958 168.606 91.874C168.373 91.79 168.163 91.664 167.976 91.496C167.799 91.3187 167.654 91.0947 167.542 90.824C167.43 90.5533 167.374 90.236 167.374 89.872V85.56H166.156ZM174.682 84.846C175.364 84.846 175.891 84.944 176.264 85.14C176.638 85.3267 176.908 85.574 177.076 85.882C177.254 86.19 177.356 86.5447 177.384 86.946C177.412 87.3473 177.426 87.758 177.426 88.178V92H176.292V91.314C176.022 91.5753 175.676 91.7853 175.256 91.944C174.836 92.0933 174.416 92.168 173.996 92.168C173.595 92.168 173.24 92.098 172.932 91.958C172.624 91.818 172.368 91.636 172.162 91.412C171.957 91.188 171.803 90.936 171.7 90.656C171.598 90.376 171.546 90.0913 171.546 89.802C171.546 89.5033 171.602 89.2047 171.714 88.906C171.826 88.6073 171.994 88.3413 172.218 88.108C172.442 87.8653 172.718 87.6693 173.044 87.52C173.371 87.3707 173.744 87.296 174.164 87.296C174.584 87.296 174.981 87.38 175.354 87.548C175.737 87.7067 176.05 87.9353 176.292 88.234V87.632C176.292 86.8667 176.176 86.2973 175.942 85.924C175.718 85.5507 175.303 85.364 174.696 85.364C174.435 85.364 174.206 85.3967 174.01 85.462C173.814 85.5273 173.637 85.6207 173.478 85.742C173.329 85.854 173.189 85.9987 173.058 86.176C172.928 86.344 172.797 86.5353 172.666 86.75L171.938 86.022C172.069 85.882 172.204 85.742 172.344 85.602C172.494 85.462 172.671 85.336 172.876 85.224C173.091 85.112 173.343 85.0233 173.632 84.958C173.922 84.8833 174.272 84.846 174.682 84.846ZM176.292 89.228C176.246 89.116 176.176 88.9853 176.082 88.836C175.998 88.6867 175.886 88.542 175.746 88.402C175.606 88.262 175.438 88.1453 175.242 88.052C175.046 87.9493 174.813 87.898 174.542 87.898C174.272 87.898 174.024 87.954 173.8 88.066C173.576 88.1687 173.385 88.3087 173.226 88.486C173.077 88.654 172.96 88.8547 172.876 89.088C172.792 89.3213 172.75 89.564 172.75 89.816C172.75 90.1147 172.802 90.376 172.904 90.6C173.016 90.8147 173.156 91.0013 173.324 91.16C173.492 91.3093 173.679 91.4213 173.884 91.496C174.09 91.5707 174.286 91.608 174.472 91.608C174.65 91.608 174.827 91.5753 175.004 91.51C175.191 91.4447 175.364 91.356 175.522 91.244C175.69 91.1227 175.84 90.9827 175.97 90.824C176.101 90.6653 176.208 90.4927 176.292 90.306V89.228ZM181.137 82.2V92H179.947V82.2H181.137Z" fill="#2E72A4"/>
</svg>
