<svg width="349" height="327" viewBox="0 0 349 327" fill="none" xmlns="http://www.w3.org/2000/svg">
<path d="M348.5 163.5C348.5 253.492 270.629 326.5 174.5 326.5C78.3713 326.5 0.5 253.492 0.5 163.5C0.5 73.5078 78.3713 0.5 174.5 0.5C270.629 0.5 348.5 73.5078 348.5 163.5Z" fill="#3274A5" stroke="black"/>
<mask id="path-2-outside-1_2_13" maskUnits="userSpaceOnUse" x="74" y="75" width="200" height="180" fill="black">
<rect fill="white" x="74" y="75" width="200" height="180"/>
<path d="M92.7041 76L172.954 226.25H173.954L254.954 76H272.204V251H249.454V109.25H248.454L169.454 254H164.954L87.7041 108.25H86.7041V251H75.7041V76H92.7041Z"/>
</mask>
<path d="M92.7041 76L172.954 226.25H173.954L254.954 76H272.204V251H249.454V109.25H248.454L169.454 254H164.954L87.7041 108.25H86.7041V251H75.7041V76H92.7041Z" fill="white"/>
<path d="M92.7041 76L93.5862 75.5289L93.3037 75H92.7041V76ZM172.954 226.25L172.072 226.721L172.355 227.25H172.954V226.25ZM173.954 226.25V227.25H174.551L174.834 226.725L173.954 226.25ZM254.954 76V75H254.357L254.074 75.5255L254.954 76ZM272.204 76H273.204V75H272.204V76ZM272.204 251V252H273.204V251H272.204ZM249.454 251H248.454V252H249.454V251ZM249.454 109.25H250.454V108.25H249.454V109.25ZM248.454 109.25V108.25H247.861L247.576 108.771L248.454 109.25ZM169.454 254V255H170.048L170.332 254.479L169.454 254ZM164.954 254L164.071 254.468L164.352 255H164.954V254ZM87.7041 108.25L88.5877 107.782L88.3059 107.25H87.7041V108.25ZM86.7041 108.25V107.25H85.7041V108.25H86.7041ZM86.7041 251V252H87.7041V251H86.7041ZM75.7041 251H74.7041V252H75.7041V251ZM75.7041 76V75H74.7041V76H75.7041ZM91.822 76.4711L172.072 226.721L173.836 225.779L93.5862 75.5289L91.822 76.4711ZM172.954 227.25H173.954V225.25H172.954V227.25ZM174.834 226.725L255.834 76.4745L254.074 75.5255L173.074 225.775L174.834 226.725ZM254.954 77H272.204V75H254.954V77ZM271.204 76V251H273.204V76H271.204ZM272.204 250H249.454V252H272.204V250ZM250.454 251V109.25H248.454V251H250.454ZM249.454 108.25H248.454V110.25H249.454V108.25ZM247.576 108.771L168.576 253.521L170.332 254.479L249.332 109.729L247.576 108.771ZM169.454 253H164.954V255H169.454V253ZM165.838 253.532L88.5877 107.782L86.8205 108.718L164.071 254.468L165.838 253.532ZM87.7041 107.25H86.7041V109.25H87.7041V107.25ZM85.7041 108.25V251H87.7041V108.25H85.7041ZM86.7041 250H75.7041V252H86.7041V250ZM76.7041 251V76H74.7041V251H76.7041ZM75.7041 77H92.7041V75H75.7041V77Z" fill="black" mask="url(#path-2-outside-1_2_13)"/>
</svg>
